<?xml version="1.0" encoding="utf-8"?>
<!-- Generator: Adobe Illustrator 22.0.0, SVG Export Plug-In . SVG Version: 6.00 Build 0)  -->
<svg version="1.1" id="Capa_1" xmlns="http://www.w3.org/2000/svg" xmlns:xlink="http://www.w3.org/1999/xlink" x="0px" y="0px"
	 viewBox="0 0 137 40.1" style="enable-background:new 0 0 137 40.1;" xml:space="preserve">
<style type="text/css">
	.st0{fill:#C10830;}
</style>
<g>
	<g>
		<path d="M54.4,14.3h-1.9v2.6h-4.6c-0.3,0-0.5,0-0.7-0.1c-0.2,0-0.3-0.1-0.4-0.2c-0.1-0.1-0.2-0.2-0.2-0.4c0-0.2-0.1-0.4-0.1-0.7
			v-2.5c0-0.3,0-0.5,0.1-0.6c0-0.2,0.1-0.3,0.2-0.4c0.1-0.1,0.3-0.2,0.4-0.2c0.2,0,0.4-0.1,0.7-0.1h6.5v-1.6h-6.5
			c-0.6,0-1.1,0.1-1.5,0.2c-0.4,0.1-0.7,0.3-1,0.5c-0.2,0.2-0.4,0.5-0.5,0.9c-0.1,0.4-0.2,0.8-0.2,1.3v2.6c0,0.5,0.1,1,0.2,1.4
			c0.1,0.4,0.3,0.7,0.5,0.9c0.2,0.2,0.6,0.4,1,0.5c0.4,0.1,0.9,0.2,1.5,0.2h6.5l0,0h0V14.3z"/>
		<path d="M62.5,18.5l-4.9-3.1v3.1h-1.9v-8.4h6.6c0.6,0,1.1,0,1.5,0.1c0.4,0.1,0.8,0.2,1,0.4c0.3,0.2,0.5,0.4,0.6,0.8
			c0.1,0.3,0.2,0.7,0.2,1.2v0.6c0,0.5-0.1,0.9-0.2,1.2c-0.1,0.3-0.3,0.6-0.6,0.8c-0.3,0.2-0.6,0.3-1,0.4c-0.4,0.1-0.9,0.1-1.5,0.1
			h-1.5l4.9,2.9H62.5z M63.7,12.7c0-0.2,0-0.4-0.1-0.5c0-0.1-0.1-0.2-0.2-0.3c-0.1-0.1-0.3-0.1-0.5-0.1c-0.2,0-0.5,0-0.8,0h-4.6v2.6
			h4.6c0.3,0,0.6,0,0.8,0c0.2,0,0.4-0.1,0.5-0.1c0.1-0.1,0.2-0.2,0.3-0.3c0-0.1,0.1-0.3,0.1-0.6V12.7z"/>
		<path d="M75.5,16.6h-5.8l-1.2,1.9h-2.2l4.9-7.8c0.1-0.2,0.3-0.4,0.5-0.6c0.2-0.2,0.5-0.2,0.9-0.2c0.4,0,0.7,0.1,0.9,0.2
			c0.2,0.2,0.4,0.4,0.5,0.6l4.9,7.8h-2.2L75.5,16.6z M70.5,15.1h4.1l-2-3.3L70.5,15.1z"/>
		<path d="M81.6,16.1v2.4h-1.9v-8.4h6.7c0.6,0,1.1,0,1.5,0.1c0.4,0.1,0.7,0.3,1,0.5c0.2,0.2,0.4,0.5,0.5,0.8
			c0.1,0.3,0.2,0.8,0.2,1.3v0.7c0,0.5,0,0.9-0.1,1.2c-0.1,0.3-0.3,0.6-0.5,0.8c-0.2,0.2-0.6,0.3-1,0.4c-0.4,0.1-0.9,0.1-1.5,0.1
			H81.6z M87.7,12.9c0-0.5-0.1-0.8-0.3-0.9c-0.2-0.2-0.5-0.2-1-0.2h-4.8v2.9h4.8c0.5,0,0.8-0.1,1-0.2c0.2-0.2,0.3-0.5,0.3-0.9V12.9z
			"/>
		<path d="M98.9,18.5v-3.4h-6.2v3.4h-1.9v-8.4h1.9v3.4h6.2v-3.4h1.9v8.4H98.9z"/>
		<path d="M102.2,18.5v-8.4h1.9v8.4H102.2z"/>
		<path d="M108.7,18.5c-0.6,0-1.1-0.1-1.5-0.2c-0.4-0.1-0.7-0.3-1-0.5c-0.2-0.2-0.4-0.5-0.5-0.9c-0.1-0.4-0.2-0.8-0.2-1.4V13
			c0-0.5,0.1-1,0.2-1.3c0.1-0.4,0.3-0.7,0.5-0.9c0.2-0.2,0.6-0.4,1-0.5c0.4-0.1,0.9-0.2,1.5-0.2h5.8v1.6h-5.8c-0.3,0-0.5,0-0.7,0.1
			c-0.2,0-0.3,0.1-0.4,0.2c-0.1,0.1-0.2,0.2-0.2,0.4c0,0.2-0.1,0.4-0.1,0.6v2.5c0,0.3,0,0.5,0.1,0.7c0,0.2,0.1,0.3,0.2,0.4
			c0.1,0.1,0.3,0.2,0.4,0.2c0.2,0,0.4,0.1,0.7,0.1h5.7v1.6H108.7z"/>
		<path d="M124.3,16.6h-5.8l-1.2,1.9h-2.2l4.9-7.8c0.1-0.2,0.3-0.4,0.5-0.6c0.2-0.2,0.5-0.2,0.9-0.2c0.4,0,0.7,0.1,0.9,0.2
			c0.2,0.2,0.4,0.4,0.5,0.6l4.9,7.8h-2.2L124.3,16.6z M119.4,15.1h4.1l-2-3.3L119.4,15.1z"/>
		<path d="M131.2,18.5c-0.6,0-1.1-0.1-1.5-0.2c-0.4-0.1-0.7-0.3-1-0.5c-0.2-0.2-0.4-0.5-0.5-0.9c-0.1-0.4-0.2-0.8-0.2-1.4v-5.5h1.9
			v5.5c0,0.2,0,0.5,0.1,0.6c0,0.2,0.1,0.3,0.2,0.4c0.1,0.1,0.3,0.2,0.5,0.2c0.2,0,0.4,0.1,0.7,0.1h5v1.6H131.2z"/>
	</g>
	<g>
		<path class="st0" d="M53.6,30.3c-0.2,0-0.4,0-0.5-0.1c-0.2-0.1-0.3-0.2-0.5-0.3l-6.1-5.8v6h-1.7v-7.8c0-0.3,0.1-0.5,0.3-0.6
			c0.2-0.1,0.4-0.2,0.7-0.2c0.2,0,0.4,0,0.5,0.1c0.1,0.1,0.3,0.1,0.3,0.2l6.2,6v-6.1h1.8v7.8c0,0.3-0.1,0.5-0.3,0.6
			C54.1,30.2,53.9,30.3,53.6,30.3z"/>
		<path class="st0" d="M59.7,30.1c-0.6,0-1.1-0.1-1.5-0.2c-0.4-0.1-0.7-0.3-1-0.5c-0.2-0.2-0.4-0.5-0.5-0.9
			c-0.1-0.4-0.2-0.8-0.2-1.4v-2.6c0-0.5,0.1-1,0.2-1.3c0.1-0.4,0.3-0.7,0.5-0.9c0.2-0.2,0.6-0.4,1-0.5c0.4-0.1,0.9-0.2,1.5-0.2h5.6
			v1.6h-5.6c-0.3,0-0.5,0-0.7,0.1c-0.2,0-0.3,0.1-0.4,0.2c-0.1,0.1-0.2,0.2-0.2,0.4c0,0.2-0.1,0.4-0.1,0.6v0.6h7.2v1.5h-7.2v0.6
			c0,0.3,0,0.5,0.1,0.6c0,0.2,0.1,0.3,0.2,0.4c0.1,0.1,0.2,0.2,0.4,0.2c0.2,0,0.4,0.1,0.7,0.1h5.9v1.6H59.7z"/>
		<path class="st0" d="M70.2,30.1v-6.8h-3.5v-1.6h9v1.6h-3.5v6.8H70.2z"/>
		<path class="st0" d="M84.7,24.1l-2.6,5.4c-0.1,0.2-0.3,0.4-0.5,0.6c-0.2,0.1-0.4,0.2-0.7,0.2c-0.3,0-0.5-0.1-0.7-0.2
			c-0.2-0.1-0.3-0.3-0.4-0.6l-3.3-7.8h2.1l2.5,6.1l2.5-5.5c0.1-0.3,0.3-0.5,0.4-0.6c0.2-0.1,0.4-0.2,0.7-0.2c0.3,0,0.5,0.1,0.7,0.2
			c0.2,0.1,0.3,0.3,0.4,0.6l2.4,5.5l2.6-6.1h2.1c-0.1,0.2-0.2,0.5-0.4,0.9c-0.2,0.4-0.4,0.9-0.6,1.4c-0.2,0.5-0.5,1-0.7,1.6
			c-0.2,0.6-0.5,1.1-0.7,1.6c-0.2,0.5-0.4,1-0.6,1.4c-0.2,0.4-0.3,0.7-0.4,0.9c-0.1,0.2-0.3,0.4-0.4,0.6c-0.2,0.1-0.4,0.2-0.7,0.2
			c-0.3,0-0.5-0.1-0.7-0.2c-0.2-0.1-0.3-0.3-0.5-0.6L84.7,24.1z"/>
		<path class="st0" d="M96.4,30.3c-0.6,0-1.1-0.1-1.5-0.2c-0.4-0.1-0.7-0.3-1-0.5c-0.2-0.2-0.4-0.5-0.5-0.9
			c-0.1-0.4-0.2-0.8-0.2-1.4v-2.6c0-0.5,0.1-1,0.2-1.3c0.1-0.4,0.3-0.7,0.5-0.9c0.2-0.2,0.6-0.4,1-0.5c0.4-0.1,0.9-0.2,1.5-0.2h3.2
			c0.6,0,1.1,0.1,1.6,0.2c0.4,0.1,0.7,0.3,1,0.5c0.2,0.2,0.4,0.5,0.5,0.9c0.1,0.4,0.2,0.8,0.2,1.3v2.6c0,0.5-0.1,1-0.2,1.4
			c-0.1,0.4-0.3,0.7-0.5,0.9c-0.2,0.2-0.6,0.4-1,0.5c-0.4,0.1-0.9,0.2-1.6,0.2H96.4z M101,24.9c0-0.3,0-0.5-0.1-0.7
			c0-0.2-0.1-0.3-0.2-0.4c-0.1-0.1-0.3-0.2-0.4-0.2c-0.2,0-0.4-0.1-0.7-0.1h-3c-0.3,0-0.5,0-0.7,0.1c-0.2,0-0.3,0.1-0.4,0.2
			c-0.1,0.1-0.2,0.2-0.2,0.4c0,0.2-0.1,0.4-0.1,0.7v2.5c0,0.3,0,0.5,0.1,0.7c0,0.2,0.1,0.3,0.2,0.4c0.1,0.1,0.3,0.2,0.4,0.2
			c0.2,0,0.4,0.1,0.7,0.1h3c0.3,0,0.5,0,0.7-0.1c0.2,0,0.3-0.1,0.4-0.2c0.1-0.1,0.2-0.2,0.2-0.4c0-0.2,0.1-0.4,0.1-0.7V24.9z"/>
		<path class="st0" d="M111.4,30.1l-4.9-3.1v3.1h-1.9v-8.4h6.6c0.6,0,1.1,0,1.5,0.1c0.4,0.1,0.8,0.2,1,0.4c0.3,0.2,0.5,0.4,0.6,0.8
			c0.1,0.3,0.2,0.7,0.2,1.2v0.6c0,0.5-0.1,0.9-0.2,1.2c-0.1,0.3-0.3,0.6-0.6,0.8c-0.3,0.2-0.6,0.3-1,0.4c-0.4,0.1-0.9,0.1-1.5,0.1
			h-1.5l4.9,2.9H111.4z M112.7,24.3c0-0.2,0-0.4-0.1-0.5c0-0.1-0.1-0.2-0.2-0.3c-0.1-0.1-0.3-0.1-0.5-0.1c-0.2,0-0.5,0-0.8,0h-4.6
			v2.6h4.6c0.3,0,0.6,0,0.8,0c0.2,0,0.4-0.1,0.5-0.1c0.1-0.1,0.2-0.2,0.3-0.3c0-0.1,0.1-0.3,0.1-0.6V24.3z"/>
		<path class="st0" d="M123.2,30.1l-4.7-4.1v4.1h-1.9v-8.4h1.9v4l4.6-4h2.5l-4.8,4.1l5,4.3H123.2z"/>
		<path class="st0" d="M127.2,30.1v-1.6h6.4c0.3,0,0.6,0,0.7-0.1c0.1-0.1,0.2-0.3,0.2-0.6v-0.5c0-0.3-0.1-0.5-0.2-0.6
			c-0.1-0.1-0.4-0.2-0.7-0.2h-4c-0.5,0-0.9,0-1.2-0.1c-0.3-0.1-0.6-0.2-0.7-0.4c-0.2-0.2-0.3-0.4-0.4-0.7c-0.1-0.3-0.1-0.6-0.1-0.9
			v-0.4c0-0.4,0-0.8,0.1-1.1c0.1-0.3,0.2-0.5,0.4-0.7c0.2-0.2,0.4-0.3,0.7-0.4c0.3-0.1,0.7-0.1,1.1-0.1h6.2v1.6h-6
			c-0.3,0-0.5,0.1-0.6,0.2c-0.1,0.1-0.2,0.3-0.2,0.7v0.3c0,0.3,0.1,0.5,0.2,0.6c0.1,0.1,0.3,0.2,0.6,0.2h3.9c0.5,0,0.9,0,1.2,0.1
			c0.3,0.1,0.6,0.2,0.8,0.4c0.2,0.2,0.4,0.4,0.4,0.7c0.1,0.3,0.1,0.6,0.1,1v0.7c0,0.4,0,0.7-0.1,1c-0.1,0.3-0.2,0.5-0.4,0.7
			c-0.2,0.2-0.5,0.3-0.8,0.4c-0.3,0.1-0.7,0.1-1.2,0.1H127.2z"/>
	</g>
	<path class="st0" d="M20.5,0.9C9.9,0.9,1.4,9.5,1.4,20s8.5,19.1,19.1,19.1c10.5,0,19.1-8.5,19.1-19.1S31,0.9,20.5,0.9z M18,30.2
		c-3.3,0-6.3-1.6-8.1-4.1h0c-1.2-1.7-2-3.7-2-5.9c0-2.2,0.7-4.2,1.9-5.9c1.7-2.3,4.4-3.9,7.4-4.1h11.3c1.1,0,2.1,0.9,2.1,2.1
		c0,1.1-0.9,2.1-2.1,2.1H18.4c-3.2,0-5.9,2.7-5.9,5.9c0,3.2,2.7,5.9,5.9,5.9l8.1,0V20c0-1.1,0.9-2.1,2.1-2.1c1.1,0,2.1,0.9,2.1,2.1
		v6.1v2v0v0c0,0,0,0,0,0c0,1.1-0.9,2.1-2.1,2.1H18z M22.6,20c0,1.1-0.9,2.1-2.1,2.1s-2.1-0.9-2.1-2.1s0.9-2.1,2.1-2.1
		S22.6,18.9,22.6,20z"/>
</g>
</svg>
